<?xml version="1.0" encoding="utf-8"?>
<!-- Generator: Adobe Illustrator 25.0.1, SVG Export Plug-In . SVG Version: 6.00 Build 0)  -->
<svg version="1.1" id="Calque_1" xmlns="http://www.w3.org/2000/svg" xmlns:xlink="http://www.w3.org/1999/xlink" x="0px" y="0px"
	 viewBox="0 0 1920 1080" style="enable-background:new 0 0 1920 1080;" xml:space="preserve">
<style type="text/css">
	.st0{fill:#FAD8C5;}
</style>
<path class="st0" d="M1175.88,583.99c-5.08,20.32,7.45,37.11,29.99,38.81c32.27,2.44,59.15-9.41,82.74-29.95
	c17.87-15.56,31.7-34.06,40.47-56.58c18-46.17,37.36-91.82,55.34-138c6.77-17.39,18.54-24.86,36.46-24.42
	c3.57,0.08,7.16-0.3,10.73-0.23c13.59,0.25,19.13,6.15,16.82,19.61c-1.39,8.12-4.36,16.07-7.42,23.77
	c-21.4,53.79-43.2,107.42-64.38,161.3c-4.17,10.6-7.09,21.9-8.99,33.14c-1.77,10.46,3.65,14.44,13.29,10.1
	c6.38-2.87,12.55-7.14,17.49-12.09c20.65-20.66,37.96-43.7,48.94-71.13c19.74-49.33,39.69-98.58,59.56-147.85
	c6.62-16.42,10.03-18.78,27.41-18.82c7.95-0.02,15.92-0.08,23.86,0.34c8.75,0.46,12.6,3.98,11.95,12.65
	c-0.52,6.97-2.52,14.05-5.12,20.59c-22.79,57.51-46.04,114.83-68.71,172.38c-4.18,10.6-7.3,21.83-9.24,33.06
	c-2,11.59,3.97,15.59,14.66,10.28c5.95-2.95,11.73-7,16.33-11.77c20.51-21.25,38.5-44.13,48.83-72.49
	c10.82-29.73,27.92-55.45,54.69-73.31c27.26-18.19,57.07-23.46,88.61-13.37c29.12,9.31,41.91,32.44,35.51,62.22
	c-9.33,43.42-40.1,69.72-84.51,71.65c-14.26,0.62-28.57,0.1-42.89,0.1c-5.75,19.52,4.47,35.33,24.99,38.28
	c20.74,2.98,40.34-1,58.89-10.36c17.66-8.9,32.25-21.44,44.48-37.09c7.54-9.65,15.4-19.72,25.16-26.79
	c10.97-7.96,24.12-13,36.6-18.69c2.29-1.04,6.15,0.38,8.89,1.58c3.59,1.57,6.59,5.41,10.17,5.89c11.35,1.5,10.49,9.33,10.87,17.46
	c0.5,10.51,0.03,20.6-8.48,27.99c-2.71,2.35-6.95,4.21-10.43,4.12c-5.77-0.16-8.24-4.29-6.59-10.04c0.53-1.85,2.31-3.33,2.86-5.18
	c1.16-3.95,1.88-8.02,2.78-12.04c-4.86-0.84-11.03-3.95-14.3-2.05c-7.3,4.22-13.84,10.34-19.43,16.78
	c-9.87,11.36-18.11,24.19-28.28,35.25c-26.05,28.37-57.79,47-96.43,52.27c-19.41,2.65-38.81,2.5-57.83-3.31
	c-21.61-6.6-36.86-19.65-43.27-41.93c-0.52-1.81-1.7-3.44-2.26-4.53c-11.83,10.97-22.9,22.43-35.21,32.35
	c-14.82,11.94-31.82,19.17-51.51,18.8c-22.93-0.43-35.98-9.89-43.03-31.87c-0.6-1.87-1.35-3.69-2.13-5.8
	c-7.75,6.55-15.01,13.32-22.92,19.23c-15.26,11.4-31.99,18.87-51.68,18.45c-26.04-0.56-40.03-13.39-44.76-43.33
	c-4.42,3.52-8.18,6.61-12.04,9.58c-36.49,28.22-77.42,39.44-123.05,31.3c-37.13-6.63-57.94-31.73-56.12-69.61
	c2.25-46.74,19.31-87.6,54.95-118.85c29.3-25.69,63.66-33.45,101.09-21.31c27.58,8.94,40.05,32.6,33.98,61.08
	c-9.43,44.23-39.89,70.29-85.18,72.3C1204.91,584.52,1190.65,583.99,1175.88,583.99z M1628.4,547.6
	c15.95,1.64,31.59,3.41,42.14-9.31c7.36-8.86,12.13-20.16,16.67-30.96c2.61-6.21-1.7-11.38-8.58-10.64
	c-6.06,0.64-12.67,2.57-17.61,5.99C1645.21,513.63,1636.19,529.8,1628.4,547.6z M1186.69,547.54c19.46,2.39,36.5,1.82,47.58-14.85
	c4.75-7.14,8.15-15.4,10.91-23.58c3-8.89-1.57-13.64-11.05-12.48c-3.11,0.38-6.4,1.11-9.1,2.59
	C1205.61,509.84,1195.95,527.94,1186.69,547.54z"/>
<path class="st0" d="M210.53,574.83c4.46-9.42,8.65-18.26,13.14-27.75c-4.21-1.9-7.7-3.61-11.28-5.07
	c-50.54-20.65-75.04-67.65-66.69-116.2c0.64-3.74-0.44-7.82-0.95-11.72c-1.74-13.23,2.87-23.28,12.51-28.42
	c0.99-5.37,0.4-11.4,3.13-14.46c2.88-3.22,9.24-3.05,13.5-5.41c3.81-2.11,8.62-5.06,9.8-8.69c2.14-6.55,5.34-8.41,11.92-8.83
	c5.09-0.33,10.42-2.87,14.89-5.63c7.73-4.78,12.69-4.66,19.98,1.35c2.21,1.82,5.33,3.11,8.18,3.47c9.66,1.2,21.69,17.6,18.65,26.84
	c-0.93,2.85-4.49,6.46-7.14,6.73c-3.69,0.37-8.97-0.93-11.28-3.54c-11.22-12.65-23.22-13.51-33.01,0.27
	c-5.3,7.46-9.03,16.94-10.56,25.99c-4.2,24.85-2.64,49.12,13.33,70.45c8.43,11.26,16.65,17.12,34.75,23.54
	c1.74-3.69,3.49-7.52,5.34-11.3c14.71-29.86,28.61-60.16,44.45-89.41c10.63-19.62,25.44-36.46,43.54-50.06
	c22.67-17.04,48.03-23.99,76.17-20.72c32.77,3.81,58.99,33.51,60.26,68.23c1.82,49.82-21.18,87.71-57.97,118.46
	c-33.61,28.1-73.43,39.97-116.57,42.14c-4.74,0.24-9.49,0.03-14.46,0.03c-8.77,20.35-17.34,40.23-26.47,61.42
	c22.26,19.92,44.5,40.29,67.3,60.01c10.48,9.07,21.75,17.31,33.22,25.11c11.6,7.89,24.49,8.42,37.62,3.67
	c10.86-3.94,16.36-11.62,14.73-22.8c-0.54-3.68-3.8-7.87-7.02-9.91c-1.79-1.13-7.24,0.73-9.02,2.9c-4.81,5.86-9.91,6.5-15.46,2.33
	c-4.39-3.3-3.01-12,3.25-16.57c5.97-4.36,12.68-7.97,19.54-10.76c6.74-2.74,27.98,9.73,30.45,16.55c1.42,3.92,3.94,7.43,5.98,11.12
	c1.32,2.38,3.94,4.79,3.83,7.09c-0.54,11.6-1.66,23.18-2.94,34.73c-0.18,1.62-2.08,3.68-3.69,4.41c-7.33,3.31-11.54,8.9-14.95,16.09
	c-1.59,3.36-6.39,5.55-10.14,7.47c-4.53,2.32-9.86,3.16-14.22,5.71c-17.75,10.43-35.97,10.99-53.06,0.27
	c-18.75-11.77-37.01-24.61-54.15-38.61c-18.76-15.32-35.99-32.51-53.9-48.87c-2.88-2.63-5.81-5.2-9.03-8.08
	c-22.61,21.77-49.4,29.93-79.93,28.17c-30.98-1.79-54.91-19.72-62.52-47.93c-10.65-39.52,20.42-81.51,61.26-83.4
	c20.12-0.92,38.55,3.59,55.7,13.91C203.54,570.93,206.6,572.59,210.53,574.83z M305.24,500.25c5.21,0,8.8,0.58,12.14-0.09
	c25.98-5.23,48.4-16.92,66.19-36.92c12.37-13.9,20.91-29.71,24.4-48.1c1.64-8.63,0.84-17.05-6.18-22.9
	c-7.2-5.99-16.26-5.29-23.49-0.74c-8.58,5.4-17.07,11.83-23.52,19.54C332.98,437.11,319.26,467.83,305.24,500.25z M183.61,617.13
	c-10.33-5.35-19-10.78-28.37-14.42c-7.57-2.94-14.99-0.29-20.04,6.45c-4.67,6.22-5.38,13.39-1.54,20.08
	c4.25,7.4,11.75,8.96,19.66,8.12C165.59,636.05,174.15,628.71,183.61,617.13z"/>
<path class="st0" d="M884.78,566.61c4.62-10.35,9.19-19.89,13.19-29.68c12.58-30.83,24.7-61.85,37.45-92.61
	c11.69-28.21,30.79-48.83,61.32-56.94c1.53-0.4,3.14-1.36,4.57-1.13c3.61,0.57,7.14,1.67,10.7,2.56c-1.31,3.02-2.15,6.38-4.02,9.01
	c-12.74,17.97-18.3,38.56-22.23,59.75c-0.99,5.33,1.26,9.85,6.5,11.3c25.9,7.12,60.33-3.81,70.46-31.94
	c8.35-23.19-1.32-48.52-24.51-59.16c-33.99-15.6-67.76-11.9-98.83,7.82c-24.72,15.69-43.74,36.87-49.19,67.2
	c-1,5.6-0.9,11.4-1.31,17.15c9.48,1.21,8.34-6.1,11.06-9.74c2.21-2.95,4.58-5.8,6.88-8.69c2.8,3.44,7.1,6.48,8.13,10.39
	c3.7,13.99-7.35,28.44-21.82,27.1c-11.54-1.07-22.76-5.58-34.09-8.69c-1.02-0.28-2.54-1.52-2.54-2.32
	c0.07-12.84-14.86-21.92-9.06-36.14c0.14-0.36,0.16-0.78,0.2-1.17c0.83-8.92-0.7-18.95,2.9-26.56
	c14.26-30.13,32.83-57.15,63.33-73.58c45.83-24.7,93.68-29.24,142.59-11.67c33.87,12.17,56.52,35.83,64.32,72.17
	c8.71,40.62-9.54,76.9-47.52,93.65c-2.87,1.27-5.76,2.46-9.42,4.02c17.88,16.63,29.57,36.05,33.42,59.55
	c8.2,50.01-17.18,103.22-63.84,117.13c-25.02,7.46-49.82,5.72-73.16-5.23c-18.94-8.88-36.75-20.15-56.25-31.03
	c-4.16,3.44-9.42,8.14-15.04,12.37c-24.53,18.47-51.86,25.28-81.98,18.37c-31.53-7.23-52.36-35.06-49.38-65.09
	c3.11-31.33,28.37-54.59,60.75-56.62c19.63-1.23,37.84,2.79,54.9,12.44C876.64,562.49,880.14,564.19,884.78,566.61z M932.81,602.69
	c13.01,6.2,25.31,13.53,38.57,18.07c23.55,8.06,45.82,1.45,57.88-15.28c13.47-18.68,13.22-44.79-1.06-64.56
	c-13.3-18.41-32.44-26.93-54.12-31.51C960.57,539.96,947.33,569.88,932.81,602.69z M860.59,602.89
	c-12.37-8.43-24.03-15.34-39.01-12.38c-10.3,2.04-17.07,9.27-16.32,17.38c0.7,7.55,8.26,13.71,18.05,14.25
	C839.01,623.01,850.04,614.77,860.59,602.89z"/>
<path class="st0" d="M534.16,631.75c-14.11,13.67-28.88,24.73-47.68,29.41c-30.72,7.64-57.87-10.62-58.09-42.23
	c-0.38-56.31,16.91-107.07,55.21-149.31c14.08-15.52,31.99-24.28,53.74-24.23c20.61,0.05,35.95,8.26,45.51,26.75
	c0.71,1.36,1.63,2.6,3.01,4.78c14.91-5.48,29.61-11.14,44.49-16.25c6.46-2.22,13.99-7.63,19.93-1.08
	c5.29,5.83,0.32,12.75-2.14,18.91c-14.08,35.36-28.45,70.61-42.13,106.12c-3.38,8.76-5.47,18.25-6.52,27.6
	c-1.11,9.89,3.91,13.47,13.01,9.42c6.38-2.84,12.88-6.9,17.43-12.09c12.02-13.7,23.04-28.28,34.37-42.57
	c2.62-3.3,4.9-6.86,7.3-10.26c7.36,2.91,7.8,8.13,7.08,13.29c-2.58,18.21-6.57,35.83-19.24,50.35
	c-17.09,19.58-36.44,35.77-62.67,40.75c-9.17,1.74-19.12,1.81-28.34,0.31C552.04,658.75,544.24,651.2,534.16,631.75z M489.95,591.32
	c-0.39,17.62,5.88,22.84,19.19,19.09c15.04-4.25,26-14.7,32.53-27.93c9.43-19.12,16.74-39.32,24.32-59.3
	c3.05-8.04,0.58-15.91-5.83-21.69c-6.53-5.9-13.99-4.45-21.05-0.74c-3.12,1.64-6.25,3.67-8.67,6.19
	C506.77,531.6,495.66,562.11,489.95,591.32z"/>
</svg>
